<svg width="50" height="20" viewBox="0 0 50 20" fill="none" xmlns="http://www.w3.org/2000/svg">
<rect width="50" height="20" rx="2" fill="white"/>
<path d="M13.5977 14.1172C13.0938 14.1172 12.6426 14.0371 12.2441 13.877C11.8457 13.7168 11.5078 13.4961 11.2305 13.2148C10.957 12.9297 10.748 12.6016 10.6035 12.2305C10.459 11.8594 10.3867 11.4629 10.3867 11.041V10.8184C10.3867 10.3457 10.4531 9.91016 10.5859 9.51172C10.7188 9.11328 10.9121 8.76758 11.166 8.47461C11.4238 8.17773 11.7402 7.94922 12.1152 7.78906C12.4902 7.625 12.918 7.54297 13.3984 7.54297C13.8477 7.54297 14.248 7.61719 14.5996 7.76562C14.9512 7.91016 15.248 8.11914 15.4902 8.39258C15.7324 8.66211 15.916 8.98828 16.041 9.37109C16.1699 9.75 16.2344 10.1758 16.2344 10.6484V11.3984H11.125V10.2207H14.4414V10.0801C14.4414 9.85742 14.4004 9.66211 14.3184 9.49414C14.2402 9.32617 14.123 9.19727 13.9668 9.10742C13.8145 9.01367 13.6211 8.9668 13.3867 8.9668C13.1641 8.9668 12.9785 9.01367 12.8301 9.10742C12.6816 9.20117 12.5625 9.33398 12.4727 9.50586C12.3867 9.67383 12.3242 9.87109 12.2852 10.0977C12.2461 10.3203 12.2266 10.5605 12.2266 10.8184V11.041C12.2266 11.2871 12.2598 11.5117 12.3262 11.7148C12.3926 11.918 12.4902 12.0918 12.6191 12.2363C12.748 12.3809 12.9043 12.4941 13.0879 12.5762C13.2715 12.6582 13.4805 12.6992 13.7148 12.6992C14.0039 12.6992 14.2793 12.6445 14.541 12.5352C14.8027 12.4219 15.0293 12.2461 15.2207 12.0078L16.0762 12.9863C15.9473 13.1738 15.7656 13.3555 15.5312 13.5312C15.3008 13.7031 15.0234 13.8438 14.6992 13.9531C14.375 14.0625 14.0078 14.1172 13.5977 14.1172ZM15.9013 10.8945V10.7715C15.9013 10.3066 15.9677 9.87891 16.1005 9.48828C16.2334 9.09375 16.4287 8.75195 16.6865 8.46289C16.9443 8.17383 17.2607 7.94922 17.6357 7.78906C18.0107 7.625 18.4404 7.54297 18.9248 7.54297C19.417 7.54297 19.8505 7.625 20.2255 7.78906C20.6045 7.94922 20.9228 8.17383 21.1806 8.46289C21.4384 8.75195 21.6337 9.09375 21.7666 9.48828C21.8994 9.87891 21.9658 10.3066 21.9658 10.7715V10.8945C21.9658 11.3555 21.8994 11.7832 21.7666 12.1777C21.6337 12.5684 21.4384 12.9102 21.1806 13.2031C20.9228 13.4922 20.6064 13.7168 20.2314 13.877C19.8564 14.0371 19.4248 14.1172 18.9365 14.1172C18.4521 14.1172 18.0205 14.0371 17.6416 13.877C17.2627 13.7168 16.9443 13.4922 16.6865 13.2031C16.4287 12.9102 16.2334 12.5684 16.1005 12.1777C15.9677 11.7832 15.9013 11.3555 15.9013 10.8945ZM17.7353 10.7715V10.8945C17.7353 11.1445 17.7548 11.3789 17.7939 11.5977C17.8369 11.8164 17.9052 12.0078 17.999 12.1719C18.0927 12.3359 18.2158 12.4648 18.3681 12.5586C18.5244 12.6484 18.7138 12.6934 18.9365 12.6934C19.1591 12.6934 19.3466 12.6484 19.499 12.5586C19.6513 12.4648 19.7744 12.3359 19.8681 12.1719C19.9619 12.0078 20.0283 11.8164 20.0673 11.5977C20.1103 11.3789 20.1318 11.1445 20.1318 10.8945V10.7715C20.1318 10.5254 20.1103 10.2949 20.0673 10.0801C20.0283 9.86133 19.9619 9.66797 19.8681 9.5C19.7744 9.33203 19.6494 9.20117 19.4931 9.10742C19.3408 9.01367 19.1513 8.9668 18.9248 8.9668C18.706 8.9668 18.5205 9.01367 18.3681 9.10742C18.2158 9.20117 18.0927 9.33203 17.999 9.5C17.9052 9.66797 17.8369 9.86133 17.7939 10.0801C17.7548 10.2949 17.7353 10.5254 17.7353 10.7715ZM25.3417 12.2363C25.3417 12.1191 25.3046 12.0156 25.2304 11.9258C25.1601 11.8359 25.0312 11.7539 24.8437 11.6797C24.6601 11.6055 24.4003 11.5312 24.0644 11.457C23.748 11.3906 23.453 11.3047 23.1796 11.1992C22.9062 11.0898 22.6679 10.959 22.4648 10.8066C22.2616 10.6504 22.1034 10.4668 21.9902 10.2559C21.8769 10.041 21.8202 9.79688 21.8202 9.52344C21.8202 9.25781 21.8769 9.00586 21.9902 8.76758C22.1073 8.5293 22.2753 8.31836 22.4941 8.13477C22.7167 7.95117 22.9862 7.80664 23.3027 7.70117C23.623 7.5957 23.9862 7.54297 24.3925 7.54297C24.9511 7.54297 25.4335 7.63086 25.8398 7.80664C26.246 7.97852 26.5585 8.2207 26.7773 8.5332C26.996 8.8418 27.1054 9.19531 27.1054 9.59375H25.2773C25.2773 9.42969 25.246 9.28711 25.1835 9.16602C25.121 9.04492 25.0253 8.95117 24.8964 8.88477C24.7675 8.81445 24.5976 8.7793 24.3866 8.7793C24.2226 8.7793 24.078 8.80859 23.953 8.86719C23.832 8.92188 23.7362 8.99805 23.6659 9.0957C23.5995 9.19336 23.5663 9.30664 23.5663 9.43555C23.5663 9.52539 23.5859 9.60742 23.6249 9.68164C23.6679 9.75195 23.7323 9.81836 23.8183 9.88086C23.9081 9.93945 24.0234 9.99219 24.164 10.0391C24.3085 10.0859 24.4843 10.1309 24.6913 10.1738C25.1327 10.2559 25.5351 10.3711 25.8984 10.5195C26.2655 10.668 26.5585 10.873 26.7773 11.1348C26.9999 11.3965 27.1112 11.7422 27.1112 12.1719C27.1112 12.4531 27.0468 12.7109 26.9179 12.9453C26.7929 13.1797 26.6112 13.3848 26.373 13.5605C26.1347 13.7363 25.8495 13.873 25.5175 13.9707C25.1855 14.0684 24.8105 14.1172 24.3925 14.1172C23.7948 14.1172 23.289 14.0098 22.8749 13.7949C22.4609 13.5801 22.1484 13.3105 21.9374 12.9863C21.7304 12.6582 21.6269 12.3223 21.6269 11.9785H23.3437C23.3515 12.1895 23.4042 12.3613 23.5019 12.4941C23.6034 12.627 23.7343 12.7246 23.8945 12.7871C24.0546 12.8457 24.2343 12.875 24.4335 12.875C24.6327 12.875 24.7987 12.8477 24.9316 12.793C25.0644 12.7383 25.1659 12.6641 25.2362 12.5703C25.3066 12.4727 25.3417 12.3613 25.3417 12.2363ZM27.2704 13.1328C27.2704 12.8672 27.3641 12.6445 27.5516 12.4648C27.743 12.2852 27.9911 12.1953 28.2958 12.1953C28.6044 12.1953 28.8505 12.2852 29.0341 12.4648C29.2216 12.6445 29.3153 12.8672 29.3153 13.1328C29.3153 13.3945 29.2216 13.6152 29.0341 13.7949C28.8505 13.9746 28.6044 14.0645 28.2958 14.0645C27.9911 14.0645 27.743 13.9746 27.5516 13.7949C27.3641 13.6152 27.2704 13.3945 27.2704 13.1328ZM33.494 12.4707V7.66016H35.3338V14H33.6112L33.494 12.4707ZM33.6873 11.1758L34.1912 11.1641C34.1912 11.5898 34.1405 11.9824 34.0389 12.3418C33.9412 12.7012 33.7928 13.0137 33.5936 13.2793C33.3983 13.5449 33.1541 13.752 32.8612 13.9004C32.5721 14.0449 32.2342 14.1172 31.8475 14.1172C31.535 14.1172 31.2479 14.0742 30.9862 13.9883C30.7284 13.8984 30.5057 13.7598 30.3182 13.5723C30.1307 13.3809 29.9862 13.1367 29.8846 12.8398C29.783 12.5391 29.7323 12.1797 29.7323 11.7617V7.66016H31.5604V11.7734C31.5604 11.9375 31.5799 12.0781 31.619 12.1953C31.662 12.3086 31.7186 12.4023 31.7889 12.4766C31.8631 12.5508 31.953 12.6055 32.0584 12.6406C32.1678 12.6758 32.287 12.6934 32.4159 12.6934C32.7401 12.6934 32.994 12.627 33.1776 12.4941C33.3651 12.3574 33.4959 12.1758 33.5702 11.9492C33.6483 11.7188 33.6873 11.4609 33.6873 11.1758ZM37.491 7.66016V14H35.657V7.66016H37.491ZM35.5457 6.01953C35.5457 5.75391 35.6395 5.53711 35.827 5.36914C36.0145 5.19727 36.2605 5.11133 36.5652 5.11133C36.8699 5.11133 37.116 5.19727 37.3035 5.36914C37.4949 5.53711 37.5906 5.75391 37.5906 6.01953C37.5906 6.28125 37.4949 6.49805 37.3035 6.66992C37.116 6.83789 36.8699 6.92188 36.5652 6.92188C36.2605 6.92188 36.0145 6.83789 35.827 6.66992C35.6395 6.49805 35.5457 6.28125 35.5457 6.01953Z" fill="black"/>
</svg>
